<svg id="Camada_1" data-name="Camada 1" xmlns="http://www.w3.org/2000/svg" viewBox="0 0 1790.03 555.97"><defs><style>.cls-1{fill:#e7cc34;}</style></defs><title>logoICFlix</title><path class="cls-1" d="M65,813.32Q65,540,65,266.68l59.31-.21Q124.1,533.75,123.9,801,94.4,807,65,813.32Z" transform="translate(-64.99 -257.35)"/><path class="cls-1" d="M500.86,283.08q-10,28-20,56.07c-25.35-19.28-59.13-21.71-89.5-21.55-39.65.21-72.31,25.18-91.89,58.7-26.38,45.16-34.77,99-34.82,150.05,0,46.57,7.35,97.06,35.09,136.38,21.09,29.9,54.83,45.67,91.25,41.4a129.82,129.82,0,0,0,94.13-58.22q16.21,23.43,32.52,46.78a209,209,0,0,1-133,72.55c-52.19,6.6-100.66-7.53-133.63-51.33-39.45-52.39-48.61-123.14-48.48-186.2.14-67.14,13.06-138.6,52.46-194.71,32-45.62,77.84-76.2,135.08-75.67C427.76,257.7,468,262.2,500.86,283.08Z" transform="translate(-64.99 -257.35)"/><path class="cls-1" d="M829.15,320.93Q829.09,384,829,447.15q76.48-.93,153-.82,0,26.25,0,52.49-76.52-.15-153,1-.11,109.79-.22,219.57-29.76.93-59.51,2.28.33-228.29.66-456.58,134.2-.1,268.4-.06l0,55.66Q933.74,320.5,829.15,320.93Z" transform="translate(-64.99 -257.35)"/><path class="cls-1" d="M1089.17,719.38q-.23-227.14-.46-454.27l59.31,0q.29,200.2.57,400.4,98.5,4,196.76,11.83.07,28.86.14,57.71Q1217.56,723.53,1089.17,719.38Z" transform="translate(-64.99 -257.35)"/><path class="cls-1" d="M1407.85,741.28q-.61-237.9-1.22-475.81l59.31.11q.62,241.23,1.25,482.46Q1437.55,744.45,1407.85,741.28Z" transform="translate(-64.99 -257.35)"/><path class="cls-1" d="M1792.56,800.32q-52.12-114.07-107.8-226.45-48.47,95.66-99,190.24-29.89-4.48-59.83-8.53,65.27-121.51,127.36-244.67Q1595.88,387.32,1535,265.4l58.42.48q47.67,96.87,93.16,194.79,52.24-96.45,102-194.21l59.6.21q-65,126.61-134.54,250.79,73.89,146.4,141.36,295.87Q1823.82,806.63,1792.56,800.32Z" transform="translate(-64.99 -257.35)"/></svg>